<svg width="513" height="527" viewBox="0 0 513 527" fill="none" xmlns="http://www.w3.org/2000/svg">
<path fill-rule="evenodd" clip-rule="evenodd" d="M-4.7864 -65V20.4952H-91V21.2136H-4.78641V106.709H-91V107.427H-4.78641V192.922H-91V193.641H-4.78641L-4.78642 279.136H-91V279.854H-4.78642V354.573H-91V355.291H-4.78642V440.786H-91V441.505H-4.78642V527H-4.06798V441.505H81.4272V527H82.1456V441.505H167.641V527H168.359V441.505H253.854V527H254.573V441.505H340.068V527H340.786V441.505H426.282V527H427V441.505H512.495V440.786H427V355.291H512.495V354.573H427V279.854H512.495V279.136H427V193.641H512.495V192.922H427V107.427H512.495V106.709H427V21.2136H512.495V20.4952H427V-65H426.282V20.4952H340.786V-65H340.068V20.4952H254.573V-65H253.854V20.4952H168.359V-65H167.641V20.4952H82.1456V-65H81.4272V20.4952H-4.06796V-65H-4.7864ZM426.282 279.136V193.641H340.786L340.786 279.136H426.282ZM340.068 279.136L340.068 193.641H254.573L254.573 279.136H340.068ZM254.573 279.854H340.068V354.573H254.573V279.854ZM253.854 279.136L253.854 193.641H168.359L168.359 279.136H253.854ZM168.359 279.854H253.854V354.573H168.359V279.854ZM167.641 279.136L167.641 193.641H82.1456L82.1456 279.136H167.641ZM82.1456 279.854H167.641V354.573H82.1456V279.854ZM81.4272 279.136L81.4272 193.641H-4.06796L-4.06797 279.136H81.4272ZM-4.06797 279.854H81.4272V354.573H-4.06797V279.854ZM340.786 279.854H426.282V354.573H340.786V279.854ZM81.4272 440.786H-4.06797V355.291H81.4272V440.786ZM167.641 440.786H82.1456V355.291H167.641V440.786ZM253.854 440.786H168.359V355.291H253.854V440.786ZM340.068 440.786H254.573V355.291H340.068V440.786ZM426.282 440.786H340.786V355.291H426.282V440.786ZM426.282 192.922V107.427H340.786V192.922H426.282ZM340.068 192.922V107.427H254.573V192.922H340.068ZM253.854 192.922V107.427H168.359V192.922H253.854ZM167.641 192.922V107.427H82.1456V192.922H167.641ZM81.4272 192.922V107.427H-4.06796V192.922H81.4272ZM-4.06796 106.709V21.2136H81.4272V106.709H-4.06796ZM82.1456 106.709V21.2136H167.641V106.709H82.1456ZM168.359 106.709V21.2136H253.854V106.709H168.359ZM254.573 106.709V21.2136H340.068V106.709H254.573ZM340.786 106.709V21.2136H426.282V106.709H340.786Z" fill="url(#paint0_radial_1157_432)"/>
<defs>
<radialGradient id="paint0_radial_1157_432" cx="0" cy="0" r="1" gradientUnits="userSpaceOnUse" gradientTransform="translate(210.748 231) rotate(90) scale(296 447.915)">
<stop stop-color="#1500AA"/>
<stop offset="1" stop-color="#666666" stop-opacity="0"/>
</radialGradient>
</defs>
</svg>
